<svg t="1595596793672" class="icon" viewBox="0 0 1024 1024" version="1.1" xmlns="http://www.w3.org/2000/svg" p-id="2212" width="200" height="200"><path d="M213.333333 256v213.333333H149.333333a21.333333 21.333333 0 0 0-21.333333 21.333334v42.666666a21.333333 21.333333 0 0 0 21.333333 21.333334H213.333333v213.333333H149.333333a21.333333 21.333333 0 0 0-21.333333 21.333333v42.666667a21.333333 21.333333 0 0 0 21.333333 21.333333H213.333333a85.333333 85.333333 0 0 0 85.333334 85.333334h512a85.333333 85.333333 0 0 0 85.333333-85.333334V170.666667a85.333333 85.333333 0 0 0-85.333333-85.333334H298.666667a85.333333 85.333333 0 0 0-85.333334 85.333334H149.333333a21.333333 21.333333 0 0 0-21.333333 21.333333v42.666667a21.333333 21.333333 0 0 0 21.333333 21.333333z m384 298.666667a85.333333 85.333333 0 1 1-85.333333-85.333334 85.333333 85.333333 0 0 1 85.333333 85.333334z m-253.866666 225.28l31.146666-61.866667a64 64 0 0 1 57.173334-35.413333h160.426666a64 64 0 0 1 57.173334 35.413333l33.28 61.866667a21.333333 21.333333 0 0 1-19.2 30.72h-298.666667a21.333333 21.333333 0 0 1-21.333333-30.72z" p-id="2213"></path></svg>